<?xml version="1.0" encoding="utf-8"?>
<!-- Generator: Adobe Illustrator 16.0.0, SVG Export Plug-In . SVG Version: 6.00 Build 0)  -->
<!DOCTYPE svg PUBLIC "-//W3C//DTD SVG 1.1//EN" "http://www.w3.org/Graphics/SVG/1.1/DTD/svg11.dtd">
<svg version="1.1" xmlns="http://www.w3.org/2000/svg" xmlns:xlink="http://www.w3.org/1999/xlink" x="0px" y="0px"
	 width="347.362px" height="217.957px" viewBox="0 0 347.362 217.957" enable-background="new 0 0 347.362 217.957"
	 xml:space="preserve">
<g id="Layer_4">
</g>
<g id="Layer_1">
	<g>
		<path fill="#939598" d="M99.846,215.564v2.393H62.927v-2.393c0,0,12.257,0.601,10.462-11.504
			c-0.146-1.202-0.446-2.393-0.896-3.893l-7.021-18.381l-2.098-5.232H25.71l-2.095,5.232l-6.724,17.785
			c-1.045,3.59-1.045,6.426-0.449,8.667c2.393,7.926,13.453,7.325,13.453,7.325v2.393H0v-2.393c0,0,6.426-0.298,11.662-10.465
			l13.896-36.769l17.189-45.14l2.393-6.579l1.943-4.78l5.083-2.393h0.146v0.15c0,0,35.127,92.079,35.428,92.674
			c0.899,2.388,2.092,4.635,3.589,6.876c1.494,2.095,3.286,4.033,5.378,5.375c0.744,0.45,1.497,0.753,2.241,0.899L99.846,215.564z
			 M62.329,173.561l-2.09-5.229l-15.694-41.402l-0.151,0.448L28.85,168.331l-2.093,5.229H62.329z"/>
		<path fill="#939598" d="M220.017,187.314c0,15.695-10.312,23.47-19.43,27.199c-5.53,2.241-11.51,3.443-17.489,3.443h-45.887
			v-2.993c0,0,13.001,1.056,13.001-10.903v-44.397h27.505l-40.208-48.431v-2.539h43.05c0,0,31.389-0.897,31.389,24.664
			c0,18.235-16.292,24.658-25.263,26.754h-0.146C194.457,160.705,220.017,164.449,220.017,187.314z M154.999,111.232l35.725,43.05
			c3.587-3.586,6.424-9.269,6.424-18.09c0-5.828-0.896-10.312-2.241-13.752c-3.435-8.367-10.76-11.208-19.582-11.208H154.999z
			 M204.624,190.306c0-2.394-0.151-4.786-0.602-7.174c-0.295-2.544-1.041-5.086-2.089-7.625c-0.747-1.795-1.795-3.738-3.138-5.382
			c-1.05-1.345-2.393-2.538-3.738-3.586c-1.193-0.896-2.539-1.644-3.884-2.241c-4.488-1.644-8.221-1.644-12.561-1.644h-6.429
			c-1.943,0-3.881,0-5.825,0h-2.69v42.299c0,0.747,0.151,1.494,0.298,2.242c0.75,3.887,3.289,6.128,6.729,7.173
			c1.193,0.449,2.539,0.596,3.881,0.596c2.691-0.146,6.277-0.298,10.167-1.191l1.491-0.449
			C195.207,210.931,204.624,204.953,204.624,190.306z"/>
		<path fill="#939598" d="M347.362,217.957h-3.289c0,0-0.449-13.896-8.071-7.926c-7.92,6.578-17.636,10.319-27.499,10.319h-0.449
			c-36.773,0-49.176-30.492-49.176-55.005c0-57.998,46.782-58.894,46.782-58.894h2.843c9.566,0,18.98,3.586,26.903,10.16
			c0,0,0.747,0.6,1.196,0.75c7.021,2.389,6.876-8.669,6.876-8.669h3.289l-0.45,19.43l0.146,15.849h-3.735v-0.449
			c-0.146-2.095-0.449-4.19-0.747-6.281c-0.744-3.588-1.792-7.175-3.435-10.464c-0.602-1.193-1.346-2.387-2.096-3.586
			c-2.988-4.634-7.325-7.924-12.257-10.166c-4.932-2.389-10.312-3.587-15.691-3.587c-3.289,0-6.429,0.15-9.42,1.198
			c-5.084,1.643-21.073,9.416-24.216,44.542c-1.042,11.209,0.151,22.573,3.738,33.335c0.151,0.593,0.446,1.042,0.598,1.64
			c1.346,3.74,2.989,7.323,4.933,10.767c2.092,3.438,4.482,6.725,7.477,9.264c3.137,2.69,6.574,4.78,10.607,5.981
			c4.938,1.489,10.016,1.343,14.953,0.146c2.688-0.747,5.227-1.646,7.62-2.69c2.393-1.196,4.932-2.388,7.024-4.185
			c10.462-8.819,11.212-28.546,11.212-28.546h4.036v17.631L347.362,217.957z"/>
	</g>
	<g>
		<rect x="126.513" y="31.413" fill="#939598" width="10.137" height="36.511"/>
		<rect x="126.513" y="23.908" fill="#939598" width="10.147" height="3.732"/>
		<rect x="140.548" y="30.896" fill="#939598" width="10.147" height="3.724"/>
		<rect x="154.585" y="14.766" fill="#9E2064" width="10.133" height="3.733"/>
		<rect x="168.609" fill="#9E2064" width="10.147" height="3.723"/>
		<rect x="182.572" y="14.766" fill="#9E2064" width="10.137" height="3.733"/>
		<rect x="196.611" y="30.896" fill="#939598" width="10.138" height="3.724"/>
		<rect x="210.635" y="23.908" fill="#939598" width="10.148" height="3.732"/>
		<rect x="140.548" y="37.719" fill="#939598" width="10.147" height="30.204"/>
		<rect x="154.585" y="22.038" fill="#9E2064" width="10.133" height="45.886"/>
		<rect x="210.637" y="31.413" fill="#939598" width="10.145" height="36.511"/>
		<rect x="196.611" y="37.719" fill="#939598" width="10.128" height="30.204"/>
		<rect x="182.568" y="22.038" fill="#9E2064" width="10.145" height="45.886"/>
		<rect x="168.609" y="7.514" fill="#9E2064" width="10.147" height="60.409"/>
	</g>
</g>
</svg>
